<svg xmlns="http://www.w3.org/2000/svg" width="730.759" height="800" viewBox="0 0 730.759 800"><path fill="#e6e6e6" d="M432.54 773.66a1.384 1.384 0 0 0 1.388 1.388h295.444a1.388 1.388 0 0 0 0-2.776H433.928a1.384 1.384 0 0 0-1.388 1.388"/><path fill="#" d="M75.676 0h288.361a68.5 68.5 0 0 1 68.5 68.5v638.046a68.5 68.5 0 0 1-68.5 68.5H75.676a68.5 68.5 0 0 1-68.5-68.5V68.5A68.5 68.5 0 0 1 75.676 0"/><path fill="#fff" d="M425.364 76.634v621.787a69.535 69.535 0 0 1-69.454 69.454H83.81a69.535 69.535 0 0 1-69.46-69.454V76.634A69.535 69.535 0 0 1 83.804 7.18h35.586v12.291a20.98 20.98 0 0 0 20.98 20.981c46.067 13.915 100.14 11.743 158.977 0a20.98 20.98 0 0 0 20.981-20.98V7.179h35.582a69.535 69.535 0 0 1 69.454 69.454Z"/><path fill="#090814" d="M5.219 157.228A5.225 5.225 0 0 1 0 152.009V141.57a5.219 5.219 0 1 1 10.438 0v10.438a5.225 5.225 0 0 1-5.219 5.219Zm0 53.524A5.225 5.225 0 0 1 0 205.533v-28.734a5.219 5.219 0 0 1 10.438 0v28.734a5.225 5.225 0 0 1-5.219 5.219m0 43.03a5.225 5.225 0 0 1-5.222-5.218V219.83a5.219 5.219 0 0 1 10.438 0v28.734a5.225 5.225 0 0 1-5.216 5.218"/><path fill="#e6e6e6" d="M103.844 37.934h-35.23a6.524 6.524 0 1 1 0-13.048h35.23a6.524 6.524 0 0 1 0 13.048"/><path fill="#f2f2f2" d="M424.5 76.351v332.123c0 38.3-411.01 38.3-411.01 0V76.351A69.535 69.535 0 0 1 82.948 6.897h35.582v12.291a20.98 20.98 0 0 0 20.98 20.981c44.11 13.853 98.565 11.573 158.977 0a20.98 20.98 0 0 0 20.981-20.98V6.897h35.58a69.535 69.535 0 0 1 69.454 69.454Z"/><path fill="#d6d6e3" d="M14.081 401.974v6.524c0 38.3 411.011 38.3 411.011 0v-6.524c-.001 38.296-411.011 38.296-411.011 0M215.14 767.652c-.223-.365-5.483-9.147-7.306-27.384-1.673-16.732-.6-44.934 14.029-84.275 27.709-74.528-6.386-134.661-6.734-135.26l1.682-.976c.088.152 8.886 15.483 14.083 39.9a174.05 174.05 0 0 1-7.209 97.017c-27.661 74.4-7.1 109.621-6.886 109.968Z"/><circle cx="12.637" cy="12.637" r="12.637" fill="#6c63ff" transform="translate(191.67 491.083)"/><circle cx="12.637" cy="12.637" r="12.637" fill="#d6d6e3" transform="translate(231.523 537.742)"/><circle cx="12.637" cy="12.637" r="12.637" fill="#6c63ff" transform="translate(204.306 568.847)"/><circle cx="12.637" cy="12.637" r="12.637" fill="#6c63ff" transform="translate(237.355 595.092)"/><circle cx="12.637" cy="12.637" r="12.637" fill="#d6d6e3" transform="translate(194.587 635.918)"/><path fill="#d6d6e3" d="M222.775 768.116s-12.637-31.105 25.273-54.435Zm-15.542-.564s-5.751-33.078-50.263-32.795Z"/><g transform="translate(452.228 170.894)"><path fill="#090814" d="M210.271 5.001s-21.042-18.865-49.339 16.688-72.558 52.967-82.714 66.753c0 0 42.084-17.414 56.6-24.67s13.786-5.8 13.786-5.8-19.598 13.782-23.226 27.57-.726 25.4-7.256 39.181 124.8 9.433 124.8 9.433 13.06-22.493 9.432-45.711-1.451-80.542-42.083-83.444"/><path fill="#ed9da0" d="M170.472 60.932s4.575 32.029-15.034 39.219-12.424 16.995-12.424 16.995l29.414 14.38 31.375-9.8 10.458-15.688s-16.995-3.922-12.419-15.687 5.883-15.687 5.883-15.687Zm82.358 91.511s-4.576 60.135-3.268 62.75 0 93.471 0 93.471 1.256 32.66-5.964 42.786c-.627.889-4.613 2.177-5.8 2.441-11.766 2.615 0-48.5 0-48.5l-11.766-75.823 1.307-75.169ZM125.37 333.502s-21.57 81.706-20.917 121.578 9.151 95.432 9.151 95.432 1.307 24.185-.654 26.8 9.8 13.727 9.8 13.727l12.419-7.19 4.576-5.229v-4.572s-7.19-22.224-1.307-39.872 9.151-62.1 3.268-75.823l40.531-120.276Z"/><path fill="#090814" d="M124.063 580.583s-7.844-9.8-13.073-6.536-13.727 25.492-13.727 25.492-29.414 28.107-8.5 29.414 30.068-5.883 32.682-11.112 26.8-18.956 26.8-18.956-2.615-24.839-6.536-25.492-9.8 9.8-9.8 9.8Z"/><path fill="#ed9da0" d="M196.617 338.731v81.05a251 251 0 0 0 1.961 29.414c1.961 14.38-11.112 121.578-11.112 121.578l1.309 18.958 16.341-1.307 1.959-16.343 23.531-71.9s7.844-43.794 3.922-60.135 14.647-120.454 14.647-120.454Z"/><path fill="#090814" d="m183.544 585.155 4.841-1.052s3.656-8.1 8.232-6.138a49.4 49.4 0 0 1 9.1 5.452l2.014 3.7s4.576 9.8 10.458 16.341 12.419 20.917 2.615 22.224-22.878 1.961-26.8-1.307-1.307-8.5-5.229-9.8-7.19-5.229-6.536-6.536 1.305-22.884 1.305-22.884"/><circle cx="29.05" cy="29.05" r="29.05" fill="#ed9da0" transform="translate(167.566 28.761)"/><path fill="#6c63ff" d="m141.715 105.38 8.634-3.014s-3.4 5.629 14.9 8.9 37.256 4.425 45.754-6.285c0 0 3.269-1.559 7.845 3.016s7.19 3.268 7.19 3.268l-3.268 16.995-6.536 31.375-8.5 23.531-24.185-5.229-26.146-18.956-9.8-25.492v-23.533Z"/><path fill="#6c63ff" d="m221.455 114.531 6.536-4.576s22.224 3.922 23.531 14.38l-16.995 32.682a37.2 37.2 0 0 1-.654 28.107c-6.536 15.034-5.883 18.3-5.883 18.3l-4.575 19.609-83.013 6.536s-3.268-7.844-4.575-9.151-1.307-5.883 0-5.883 0-1.961-1.307-3.922-1.961-2.615 0-5.229-3.268-26.139-3.268-26.139v-25.5l-22.224-29.414s7.844-11.766 11.766-13.073 22.578-6.463 22.578-6.463l4.221 6.216 5.879 47.314 8.5 28.76 35.778-6.079 13.9-23.335 9.151-27.453Z"/><path fill="#6c63ff" d="m246.294 120.41 5.229 3.922s4.576 36.6 3.268 39.219-24.185 5.229-24.839 3.922 16.342-47.063 16.342-47.063"/><path fill="#090814" d="m138.443 102.112 6.537 43.141s-5.883 64.057-4.576 77.13l1.307 3.922s-2.615-1.307-3.268 1.307 0 11.112 0 11.112-3.922 3.922-5.229 25.492-19.751 83.013-13.868 84.974 49.379 20.553 68.334 18.592 71.812-12.709 71.158-18.592-23.656-119.617-23.656-119.617-5.883-9.8-5.883-11.112 7.844-6.536 5.883-11.766-12.419-60.132-12.419-60.132l7.19-39.219-9.8-2.615-7.19 37.911s-28.107 13.727-57.521 1.307l-6.536-44.448Zm31.448-65.149s48.37 33.336 61.443 18.3-22.878-28.107-22.878-28.107l-30.068-3.268Z"/><path fill="#524e41" d="M99.692 382.583a22.4 22.4 0 1 0-7.026-8.721l-58.6 48.789-7.8-9.26-3.505 2.344-3.9-4.63 3.205-2.7-3.9-4.63-4.986 4.2 2.4 2.849-5.342 4.5-2.4-2.849-7.835 6.6 3.6 4.274 2.849-2.4 3.9 4.63-3.562 3 7.2 8.547-8.548 7.2 8.7 10.328Zm14.631-32.728a14.819 14.819 0 1 1-16.027 13.5 14.82 14.82 0 0 1 16.027-13.5"/><path fill="#ed9da0" d="M104.454 160.286s4.576 60.135 3.268 62.75 0 93.471 0 93.471-9.151 49.023 2.615 51.638 9.151-54.906 9.151-54.906l11.766-75.823-1.307-75.169Z"/><path fill="#6c63ff" d="m114.257 122.375-5.229 1.961s-9.8 41.18-7.19 41.18 33.99 3.922 33.99 2.615-5.883-33.336-5.883-33.336Z"/></g></svg>