<svg xmlns="http://www.w3.org/2000/svg" width="664.388" height="799.489" viewBox="0 0 664.388 799.489"><g id="Group_479" data-name="Group 479" transform="translate(-480 -205.093)"><path id="Path_7220-138" fill="#9f616a" d="M382.334 87.652S370.675 64.335 373 43.359l-38.8 20.106 1.5 38.171 46.633-13.984Z" data-name="Path 7220" transform="translate(687.753 402.93)"/><circle id="Ellipse_1133" cx="35.005" cy="35.005" r="35.005" fill="#9f616a" data-name="Ellipse 1133" transform="translate(1011 407.158)"/><path id="Path_7221-139" fill="#9f616a" d="M384.574 434.407h-21.366l-10.158-82.388h31.524Z" data-name="Path 7221" transform="translate(697.187 557.391)"/><path id="Path_7222-140" fill="#090814" d="M325.63 414.636c-.66 1.125-1.02 4.741-1.02 6.032a7.24 7.24 0 0 0 7.247 7.247H398a4.956 4.956 0 0 0 4.951-4.951V420.2s3.271-8.282-3.466-18.47c0 0-8.372 7.982-20.886-4.516l-3.691-6.677-26.708 19.538-14.809 1.815c-3.241.405-6.107-.06-7.772 2.746h.015Z" data-name="Path 7222" transform="translate(682.954 576.667)"/><path id="Path_7224-141" fill="#090814" d="M28.469 8.777h-9.407S10.9 18.83 11.995 12.709 8.694 0 8.694 0L2.107 2.191S-11.067 57.6 28.469 60.647 76.8 32.934 76.8 32.934s-2.191-15.379-6.587-10.983-28.553 6.587-28.553 6.587L28.484 8.762z" data-name="Path 7224" transform="rotate(194 567.168 167.247)"/><path id="Path_7225-142" fill="#9f616a" d="m345.38 421.032-20.541 5.792-32.169-76.508 30.339-8.567Z" data-name="Path 7225" transform="translate(666.971 552.251)"/><path id="Path_7227-143" fill="#090814" d="M458.765 175.1v84.429l-25.38 243.057h-33.419l-7.805-180.265 3.646-77.362-78.187 118.299 41.132 125.306-35.279 4.167s-65.885-148.663-57.423-161.162 84.264-159.93 84.264-159.93 108.421 5.806 108.451 3.461" data-name="Path 7227" transform="translate(653.274 467.124)"/><path id="Path_7226-144" fill="#090814" d="M280.81 419.729c-.33 1.26.315 4.831.66 6.092a7.247 7.247 0 0 0 8.943 5.011l63.648-17.975a4.96 4.96 0 0 0 3.421-6.107l-.75-2.656s.9-8.852-8.357-16.835c0 0-5.882 9.963-21.321 1.32l-5.371-5.432-20.392 26.053-13.744 5.777c-3 1.26-5.9 1.605-6.737 4.756Z" data-name="Path 7226" transform="translate(660.99 572.969)"/><path id="Path_7223-145" fill="#d6d6e3" d="m341.274 76.318 51.3-8.1 39.641 21.6 2.326 167.445s-97.5 13.5-112.862-4.05-3.706-157.99-3.706-157.99l23.317-18.91h-.015Z" data-name="Path 7223" transform="translate(677.513 415.37)"/><path id="Path_7228-146" fill="#9f616a" d="m415.855 111.729 11.268 18.455s15.935 62.628 0 62.883-48.1-31.914-48.1-31.914l4.2-16.79 11.658 4.666-2.326-37.3z" data-name="Path 7228" transform="translate(710.183 437.144)"/><path id="Path_7229-147" fill="#d6d6e3" d="M380.26 80.728s37.3-6.572 40.8 17.84 5.447 47.548 5.447 47.548l-40.422 3.346z" data-name="Path 7229" transform="translate(710.803 421.227)"/><path id="Path_7251-148" fill="#6c63ff" d="m342.965 238.491-52.636-44.854a3.074 3.074 0 0 1-.221-4.334l85.248-100.039a3.074 3.074 0 0 1 4.314-.47l52.636 44.854a3.074 3.074 0 0 1 .221 4.334l-85.248 100.039a3.074 3.074 0 0 1-4.314.47" data-name="Path 7251" transform="translate(665.296 425.326)"/><path id="Path_7252-149" fill="none" stroke="#2f2e41" stroke-miterlimit="10" stroke-width="1" d="m342.965 238.491-52.636-44.854a3.074 3.074 0 0 1-.221-4.334l85.248-100.039a3.074 3.074 0 0 1 4.314-.47l52.636 44.854a3.074 3.074 0 0 1 .221 4.334l-85.248 100.039a3.074 3.074 0 0 1-4.314.47Z" data-name="Path 7252" transform="translate(665.296 425.326)"/><path id="Path_7253-150" fill="#9f616a" d="M331 92.419 309.813 96.8s-56.626 31.164-45.913 42.972 56.176 13.328 56.176 13.328l9.393-14.539-11.369-5.33 28.838-23.782z" data-name="Path 7253" transform="translate(651.899 427.48)"/><path id="Path_7254-151" fill="#d6d6e3" d="M373.387 95.149s-20.691-31.734-40.9-17.6-38.426 28.508-38.426 28.508l25.177 31.794 54.165-42.7h-.015Z" data-name="Path 7254" transform="translate(667.666 418.224)"/><path id="Path_7264-152" fill="#f2f2f2" d="M32.713 1.377c-9.547-3.514-20.6-.073-26.99 7.7A25.63 25.63 0 0 0 3.1 37.434a23.6 23.6 0 0 0 11.93 10.572 21.57 21.57 0 0 0 14.639.31A3.57 3.57 0 0 0 32.8 49a3.618 3.618 0 1 0-4.513-3.506 4 4 0 0 0 .043.424c-7.463 2.334-15.707-.533-20.7-6.593a22.78 22.78 0 0 1-2.639-24.19A22.43 22.43 0 0 1 24.823 2.7c8.659.028 16.852 5.742 18.582 14.467a15.83 15.83 0 0 1-3.152 12.859c-1.444 1.753-3.51 3.481-5.9 3.5a1.94 1.94 0 0 1-1.114-.455 5 5 0 0 1-1.89-4.594l.984-8.8a18.7 18.7 0 0 1 .741-4.2 1.5 1.5 0 0 0 .3-.732c.541-1.029 1.586-2.115 2.813-1.949a1.406 1.406 0 0 0 1.669-.947 1.365 1.365 0 0 0-.948-1.669 5.43 5.43 0 0 0-4.853 1.749 6.6 6.6 0 0 0-.725.964c-7.147-2.913-16.163-.17-19.832 6.86a13.07 13.07 0 0 0-.076 12.522c1.99 3.442 5.832 5.95 9.9 5.617a11.02 11.02 0 0 0 6.578-2.949 1.9 1.9 0 0 1 2.477-.08l.015.011a6.81 6.81 0 0 0 6.7.847c4.567-1.718 7.63-6.484 8.747-11.059 2.426-9.934-3.758-19.837-13.126-23.285m-10.3 31.907a6.34 6.34 0 0 1-7.235-3.617c-1.809-3.617-.626-12.4 5.77-14.521a13.43 13.43 0 0 1 9.329.245A16 16 0 0 0 29.9 17.3c-.511 3.706-1.53 11.494-1.6 11.737-.692 3.074-2.824 3.609-5.888 4.251Z" data-name="Path 7264" transform="rotate(-38.02 1345.118 -1149.168)"/><ellipse id="Ellipse_1137" cx="10.533" cy="21.051" fill="#9f616a" data-name="Ellipse 1137" rx="10.533" ry="21.051" transform="rotate(-78.56 838.202 -298.542)"/><ellipse id="Ellipse_1138" cx="10.533" cy="21.051" fill="#9f616a" data-name="Ellipse 1138" rx="10.533" ry="21.051" transform="rotate(-54.54 1092.362 -736.77)"/><g id="Group_478" data-name="Group 478" transform="translate(480 205.093)"><path id="Path_7273-153" fill="#3f3d56" d="M610.34 713.215q-.257.002-.314-.007H310.762a17.63 17.63 0 0 1-16.4-24.16c10.858-27.129 25.478-92.215 1.4-223.322-28.435-154.814-2.978-210.764 9.287-227.634a17.7 17.7 0 0 1 14.28-7.27h303.949a17.634 17.634 0 0 1 16.961 22.517c-12.68 43.842-38.793 160.011-7.486 291.5 23.734 99.685 12.325 140.345-1.426 156.9-9.07 10.923-19.064 11.476-20.987 11.476M319.329 233.826a14.7 14.7 0 0 0-11.853 6.033c-12.037 16.557-36.988 71.656-8.762 225.328 23 125.246 11.847 191.475-1.563 224.979a14.39 14.39 0 0 0 1.466 13.6 14.65 14.65 0 0 0 12.145 6.443H610.1c.473.023 10.122.29 19.012-10.5 13.248-16.077 24.128-55.875.722-154.177-31.472-132.181-5.223-248.956 7.523-293.026a14.633 14.633 0 0 0-14.079-18.683Z" data-name="Path 7273" transform="translate(-282.806 -230.825)"/><path id="Path_7274-154" fill="#6c63ff" d="M558.838 328.832H320.271a12 12 0 1 1 0-24.007h238.567a12 12 0 1 1 0 24.007" data-name="Path 7274" transform="translate(-270.065 -193.794)"/><path id="Path_7275-155" fill="#d6d6e3" d="M558.838 362.832H320.271a12 12 0 0 1 0-24.007h238.567a12 12 0 1 1 0 24.007" data-name="Path 7275" transform="translate(-270.065 -176.779)"/><path id="Path_7279-156" fill="#6c63ff" d="M432.8 294.832H320.271a12 12 0 1 1 0-24.007H432.8a12 12 0 1 1 0 24.007" data-name="Path 7279" transform="translate(-270.065 -210.808)"/><path id="Path_7280-157" fill="#3f3d56" d="M383.054 524.292c2.422-10.255 13.8-13.617 23.1-13.241a98.6 98.6 0 0 1 17.421 2.757c5.978 1.337 11.9 2.921 17.787 4.6 10.8 3.08 21.49 6.805 32.469 9.214 9.14 2 19.072 3.181 28.187.413 8.762-2.661 16.195-9.192 18.578-18.222 2.246-8.51-.838-17.814-9.084-21.7-7.52-3.546-17.018-1.743-20.746 6.277-4.2 9.043 0 18.9 6.651 25.448a74.5 74.5 0 0 0 12.36 9.388 46 46 0 0 0 14.8 6.629c8.68 1.854 19.02-.878 23.5-9.171a15.5 15.5 0 0 0 1.758-6.057c.265-2.884-4.238-2.865-4.5 0-.759 8.257-10.429 12.125-17.661 11.219a35.9 35.9 0 0 1-13.692-5.314 80 80 0 0 1-11.341-8c-6.133-5.308-11.883-14.043-7.764-22.325 3.354-6.744 12.1-6.677 17.417-2.328 6.441 5.268 5.292 14.828 1.044 21.084-4.7 6.926-13.229 9.83-21.267 10.143-8.734.34-17.4-1.664-25.742-4.034-10.372-2.945-20.64-6.242-31.062-9.014-5.917-1.574-11.879-2.995-17.9-4.1a59 59 0 0 0-17.359-1.2c-9.393 1.085-18.98 6.552-21.293 16.346-.665 2.817 3.674 4.019 4.341 1.2Z" data-name="Path 7280" transform="translate(-282.403 -123.579)"/><g id="Rectangle_1380" fill="#fff" stroke="#707070" stroke-width="1" data-name="Rectangle 1380"><path stroke="none" d="M102.029 233.082h160.545v70.52H102.029z"/><path fill="none" d="M102.529 233.582h159.545v69.52H102.529z"/></g><path id="Path_7294-158" fill="#fff" d="M872.338 669.577h-7.245v-7.245a2.717 2.717 0 0 0-5.434 0v7.245h-7.245a2.717 2.717 0 0 0 0 5.434h7.245v7.245a2.717 2.717 0 1 0 5.434 0v-7.245h7.245a2.717 2.717 0 0 0 0-5.434" data-name="Path 7294" transform="translate(-680.075 -403.952)"/></g></g></svg>